# AST/ASF file generated using VICON BodyLanguage
# -----------------------------------------------
:version 1.10
:name VICON
:units
  mass 1.0
  length 0.45
  angle deg
:documentation
   .ast/.asf automatically generated from VICON data using
   VICON BodyBuilder and BodyLanguage model FoxedUp or BRILLIANT.MOD
:root
   order TX TY TZ RX RY RZ
   axis XYZ
   position 0 0 0  
   orientation 0 0 0 
:bonedata
  begin
     id 1 
     name lhipjoint
     direction 0.521452 -0.77106 0.36545 
     length 2.0933 
     axis 0 0 0  XYZ
  end
  begin
     id 2 
     name lfemur
     direction 0.34202 -0.939693 0  
     length 6.83441  
     axis 0 0 20  XYZ
    dof rx ry rz
    limits (-160.0 20.0)
           (-70.0 70.0)
           (-60.0 70.0)
  end
  begin
     id 3 
     name ltibia
     direction 0.34202 -0.939693 0   
     length 7.28749   
     axis 0 0 20   XYZ
    dof rx
    limits (-10.0 170.0)
  end
  begin
     id 4 
     name lfoot
     direction 0.100608 -0.276418 0.955757   
     length 1.52195   
     axis -90 7.62852e-016 20   XYZ
    dof rx rz
    limits (-45.0 90.0)
           (-70.0 20.0)
  end
  begin
     id 5 
     name ltoes
     direction 1.53558e-011 -4.21907e-011 1   
     length 0.770459   
     axis -90 7.62852e-016 20   XYZ
    dof rx
    limits (-90.0 20.0)
  end
  begin
     id 6 
     name rhipjoint
     direction -0.488071 -0.788702 0.373812   
     length 2.04648  
     axis 0 0 0  XYZ 
  end
  begin
     id 7 
     name rfemur
     direction -0.34202 -0.939693 0   
     length 6.92583   
     axis 0 0 -20   XYZ
    dof rx ry rz
    limits (-160.0 20.0)
           (-70.0 70.0)
           (-70.0 60.0)
  end
  begin
     id 8 
     name rtibia
     direction -0.34202 -0.939693 0   
     length 7.41043   
     axis 0 0 -20   XYZ
    dof rx
    limits (-10.0 170.0)
 end
 begin
     id 9 
     name rfoot
     direction -0.0784433 -0.215521 0.973343   
     length 1.67708  
     axis -90 -7.62852e-016 -20   XYZ
    dof rx rz
    limits (-45.0 90.0)
           (-20.0 70.0)
  end
  begin
     id 10 
     name rtoes
     direction -1.53551e-011 -4.21842e-011 1   
     length 0.849787   
     axis -90 -7.62852e-016 -20   XYZ
    dof rx
    limits (-90.0 20.0)
  end
  begin
     id 11 
     name lowerback
     direction -0.0122332 0.997575 -0.0685192   
     length 1.98724   
     axis 0 0 0   XYZ
    dof rx ry rz
    limits (-20.0 45.0)
           (-30.0 30.0)
           (-30.0 30.0)
  end
  begin
     id 12 
     name upperback
     direction 0.0182347 0.999724 -0.0148421   
     length 1.99029   
     axis 0 0 0   XYZ
    dof rx ry rz
    limits (-20.0 45.0)
           (-30.0 30.0)
           (-30.0 30.0)
  end
  begin
     id 13 
     name thorax
     direction 0.0242908 0.99956 0.0170184   
     length 1.99573   
     axis 0 0 0   XYZ
    dof rx ry rz
    limits (-20.0 45.0)
           (-30.0 30.0)
           (-30.0 30.0)
  end
  begin
     id 14 
     name lowerneck
     direction 0.0654488 0.985533 0.156338   
     length 1.4285   
     axis 0 0 0   XYZ
    dof rx ry rz
    limits (-20.0 45.0)
           (-30.0 30.0)
           (-30.0 30.0)
  end
  begin
     id 15 
     name upperneck
     direction -0.02953 0.998556 -0.0448842   
     length 1.44709   
     axis 0 0 0   XYZ
    dof rx ry rz
    limits (-20.0 45.0)
           (-30.0 30.0)
           (-30.0 30.0)
  end
  begin
     id 16
     name head
     direction -0.0155588 0.999386 -0.0314063  
     length 1.44689  
     axis 0 0 0   XYZ
    dof rx ry rz
    limits (-20.0 45.0)
           (-30.0 30.0)
           (-30.0 30.0)
  end
  begin
     id 17 
     name lclavicle
     direction 0.968229 0.236071 -0.0824755  
     length 3.60593  
     axis 0 0 0   XYZ
    dof ry rz
    limits (-20.0 10.0)
           (0.0 20.0)
  end
  begin
     id 18 
     name lhumerus
     direction 1 -4.48968e-011 7.8138e-029   
     length 5.06035   
     axis 180 -30 -90   XYZ
    dof rx ry rz
    limits (-60.0 90.0)
           (-90.0 90.0)
           (-90.0 90.0)
  end
  begin
     id 19
     name lradius
     direction 1 -4.48967e-011 9.02887e-028   
     length 3.1478   
     axis 180 -30 -90   XYZ
    dof rx
    limits (-10.0 170.0)
  end
  begin
     id 20
     name lwrist
     direction 1 -4.48961e-011 7.20928e-028   
     length 1.5739   
     axis -5.52449e-016 90 90   XYZ
    dof ry
    limits (-180.0 0.0)
 end
  begin
     id 21 
     name lhand
     direction 1 -4.48972e-011 1.44186e-027   
     length 0.606747   
     axis -9.20027e-016 90 90   XYZ
    dof rx rz
    limits (-90.0 90.0)
           (-45.0 45.0)
  end
  begin
     id 22 
     name lfingers
     direction 1 -4.48943e-011 2.88371e-027   
     length 0.489175   
     axis -1.84005e-015 90 90   XYZ
    dof rx
    limits (0.0 90.0)
  end
  begin
     id 23
     name lthumb
     direction 0.707107 -6.34917e-011 0.707107   
     length 0.70236   
     axis -90 45 2.85299e-015   XYZ
    dof rx rz
    limits (-45.0 45.0)
           (-45.0 45.0)
  end
  begin
     id 24 
     name rclavicle
     direction -0.978165 0.207816 0.0022268   
     length 3.35425  
     axis 0 0 0   XYZ 
    dof ry rz
    limits (-10.0 20.0)
           (-20.0 0.0)
  end
  begin
     id 25 
     name rhumerus
     direction -1 -4.48964e-011 -4.02159e-027  
     length 5.12273   
     axis 180 30 90   XYZ
    dof rx ry rz
    limits (-90.0 60.0)
           (-90.0 90.0)
           (-90.0 90.0)
  end
  begin
     id 26 
     name rradius
     direction -1 -4.48966e-011 1.62746e-027   
     length 3.422   
     axis 180 30 90   XYZ
    dof rx
    limits (-10.0 170.0)
  end
  begin
     id 27 
     name rwrist
     direction -1 -4.4896e-011 7.20928e-028   
     length 1.711   
     axis -5.52449e-016 -90 -90   XYZ
    dof ry
    limits (-180.0 0.0)
  end
  begin
     id 28
     name rhand
     direction -1 -4.48979e-011 1.44186e-027   
     length 0.704599   
     axis -9.20027e-016 -90 -90   XYZ
    dof rx rz
    limits (-90.0 90.0)
           (-45.0 45.0)
  end
  begin
     id 29
     name rfingers
     direction -1 -4.48962e-011 2.88371e-027   
     length 0.568066   
     axis -1.84005e-015 -90 -90   XYZ
    dof rx
    limits (0.0 90.0)
  end
  begin
     id 30
     name rthumb
     direction -0.707107 -6.34949e-011 0.707107   
     length 0.815633   
     axis -90 -45 -2.85299e-015   XYZ
    dof rx rz
    limits (-45.0 45.0)
           (-45.0 45.0)
  end
:hierarchy
  begin
    root lhipjoint rhipjoint lowerback
    lhipjoint lfemur
    lfemur ltibia
    ltibia lfoot
    lfoot ltoes
    rhipjoint rfemur
    rfemur rtibia
    rtibia rfoot
    rfoot rtoes
    lowerback upperback
    upperback thorax
    thorax lowerneck lclavicle rclavicle
    lowerneck upperneck
    upperneck head
    lclavicle lhumerus
    lhumerus lradius
    lradius lwrist
    lwrist lhand lthumb
    lhand lfingers
    rclavicle rhumerus
    rhumerus rradius
    rradius rwrist
    rwrist rhand rthumb
    rhand rfingers
  end

#!OML:ASF E:\id_vita\Project 1\Capture day 1\Session 1\Male1.ASF
:FULLY-SPECIFIED
:DEGREES
475
root 3.64687 27.1571 0.757493 -165.362 85.6821 -183.611
lowerback 12.8319 -1.54564 -7.41844
upperback 9.42905 -2.11565 -1.36077
thorax 3.05253 -1.13941 2.94577
lowerneck -6.56395 1.26268 5.17896
upperneck -9.61044 2.21956 5.62459
head -1.93587 1.02527 0.905021
rclavicle -1.11319e-014 -9.54166e-015
rhumerus 38.8365 13.8046 -74.3516
rradius 124.433
rwrist -2.81823
rhand -31.1563 53.7553
rfingers 7.12502
rthumb -4.43403 23.8217
lclavicle -1.11319e-014 -9.54166e-015
lhumerus 52.0004 -9.85888 58.7433
lradius 119.257
lwrist -2.5291
lhand -32.4727 39.7108
lfingers 7.12502
lthumb -5.70508 69.614
rfemur -36.3529 -1.07926 19.7952
rtibia 32.2283
rfoot -10.9904 -7.90567
rtoes -6.87582
lfemur -31.7786 -1.54325 -15.8525
ltibia 33.0316
lfoot -21.7905 1.78632
ltoes 23.8729
476
root 3.64776 27.1593 0.753578 -166.256 85.5724 -184.457
lowerback 12.704 -1.62712 -7.52383
upperback 9.57999 -2.20004 -1.35206
thorax 3.30207 -1.19408 3.01323
lowerneck -6.85623 1.27015 5.25615
upperneck -9.3838 2.18879 5.65966
head -1.81246 1.02025 0.904847
rclavicle -2.14687e-014 -1.43125e-014
rhumerus 39.0799 13.7616 -74.3488
rradius 124.405
rwrist -3.15274
rhand -31.1481 53.7471
rfingers 7.12502
rthumb -4.42616 23.8134
lclavicle -2.14687e-014 -1.43125e-014
lhumerus 52.1053 -9.72245 58.6392
lradius 119.032
lwrist -2.18081
lhand -34.0001 39.4469
lfingers 7.12502
lthumb -7.17964 69.3051
rfemur -36.2623 -1.18944 19.7325
rtibia 32.2021
rfoot -11.015 -7.91404
rtoes -6.615
lfemur -31.7298 -1.49475 -15.9567
ltibia 33.0121
lfoot -21.8036 1.60069
ltoes 24.1172
477
root 3.64829 27.1608 0.748952 -167.354 85.5246 -185.569
lowerback 12.5382 -1.68486 -7.60057
upperback 9.72425 -2.24716 -1.39527
thorax 3.5571 -1.22731 3.00542
lowerneck -7.13123 1.30218 5.29874
upperneck -9.24324 2.20729 5.73985
head -1.72206 1.03911 0.924978
rclavicle -7.71285e-014 2.70347e-014
rhumerus 39.3643 13.7199 -74.3086
rradius 124.399
rwrist -3.30476
rhand -31.1383 53.6279
rfingers 7.12502
rthumb -4.41672 23.694
lclavicle -7.71285e-014 2.70347e-014
lhumerus 52.3173 -9.6111 58.5436
lradius 119
lwrist -1.96185
lhand -33.1201 40.7557
lfingers 7.12502
lthumb -6.33016 70.6411
rfemur -36.262 -1.23128 19.6183
rtibia 32.2103
rfoot -11.0608 -7.95803
rtoes -6.36387
lfemur -31.7377 -1.53542 -16.0718
ltibia 33.003
lfoot -21.7963 1.59228
ltoes 24.2567
478
root 3.64364 27.159 0.745674 -167.374 85.5416 -185.602
lowerback 12.4563 -1.62552 -7.64754
upperback 9.66807 -2.17619 -1.37952
thorax 3.5359 -1.19553 3.04093
lowerneck -6.6532 1.25976 5.32107
upperneck -9.1937 2.17026 5.73746
head -1.78517 1.00742 0.916862
rclavicle -1.35174e-014 4.77083e-014
rhumerus 39.169 13.6462 -74.2695
rradius 124.431
rwrist -3.44552
rhand -31.1341 53.5347
rfingers 7.12502
rthumb -4.4126 23.6007
lclavicle -1.35174e-014 4.77083e-014
lhumerus 52.2717 -9.80281 58.6264
lradius 119.099
lwrist -1.7817
lhand -29.3294 44.1122
lfingers 7.12502
lthumb -2.6698 74.0752
rfemur -36.3143 -1.11733 19.5646
rtibia 32.2524
rfoot -11.0342 -8.05194
rtoes -6.37818
lfemur -31.7492 -1.58449 -16.0692
ltibia 32.958
lfoot -21.7554 1.63051
ltoes 24.2388
479
root 3.63789 27.1563 0.744713 -167.7 85.5488 -185.913
lowerback 12.4669 -1.6246 -7.71113
upperback 9.78992 -2.16259 -1.3768
thorax 3.66635 -1.19493 3.07551
lowerneck -6.96591 1.27779 5.18121
upperneck -9.34913 2.21216 5.875
head -1.78736 1.0373 0.9862
rclavicle -2.78299e-014 7.95139e-016
rhumerus 39.4225 13.5423 -74.2151
rradius 124.385
rwrist -3.55374
rhand -31.1435 53.5649
rfingers 7.12502
rthumb -4.42175 23.631
lclavicle -2.78299e-014 7.95139e-016
lhumerus 52.4696 -9.677 58.5843
lradius 119.262
lwrist -1.68711
lhand -29.1292 44.1233
lfingers 7.12502
lthumb -2.47649 74.0887
rfemur -36.3484 -0.971201 19.489
rtibia 32.2978
rfoot -10.962 -8.2006
rtoes -6.52943
lfemur -31.7406 -1.58072 -16.0918
ltibia 32.9235
lfoot -21.7118 1.62081
ltoes 23.9394
480
root 3.63597 27.1564 0.742865 -169.119 85.5385 -187.311
lowerback 12.6007 -1.63576 -7.8332
upperback 9.77978 -2.19649 -1.41932
thorax 3.59369 -1.21252 3.10587
lowerneck -7.20697 1.42128 4.93961
upperneck -9.34641 2.41007 5.91753
head -1.75079 1.15143 1.04256
rclavicle -3.81667e-014 -9.54166e-015
rhumerus 39.4463 13.4916 -74.2729
rradius 124.311
rwrist -3.68585
rhand -31.1459 53.5709
rfingers 7.12502
rthumb -4.42406 23.6371
lclavicle -3.81667e-014 -9.54166e-015
lhumerus 52.4906 -9.66084 58.516
lradius 119.399
lwrist -1.71619
lhand -28.8587 44.0716
lfingers 7.12502
lthumb -2.21526 74.0399
rfemur -36.3491 -0.888071 19.3263
rtibia 32.3504
rfoot -10.9647 -8.34403
rtoes -6.69221
lfemur -31.7127 -1.53576 -16.2361
ltibia 32.9003
lfoot -21.6393 1.56935
ltoes 23.6687
481
root 3.63543 27.1575 0.737614 -170.254 85.5325 -188.418
lowerback 12.644 -1.49589 -7.87671
upperback 9.56293 -2.0488 -1.51179
thorax 3.31563 -1.12898 3.02707
lowerneck -6.43668 1.49911 5.20463
upperneck -9.20469 2.50147 5.54303
head -1.82446 1.17469 0.874213
rclavicle -5.80451e-014 -5.56597e-015
rhumerus 38.8723 13.2707 -74.3577
rradius 124.309
rwrist -3.54293
rhand -31.1081 53.3899
rfingers 7.12502
rthumb -4.3875 23.4554
lclavicle -5.80451e-014 -5.56597e-015
lhumerus 52.3421 -10.2969 58.544
lradius 119.318
lwrist -1.90815
lhand -29.1473 43.8361
lfingers 7.12502
lthumb -2.49393 73.8013
rfemur -36.3274 -0.872195 19.1923
rtibia 32.3953
rfoot -11.0066 -8.37017
rtoes -6.41558
lfemur -31.6819 -1.45645 -16.3877
ltibia 32.8783
lfoot -21.5767 1.49592
ltoes 23.834
482
root 3.63286 27.1552 0.732352 -171.222 85.5452 -189.361
lowerback 12.6906 -1.51668 -7.90054
upperback 9.57996 -2.07736 -1.55861
thorax 3.31199 -1.14156 2.99457
lowerneck -6.51498 1.59038 5.08716
upperneck -9.24055 2.62357 5.46914
head -1.82342 1.24163 0.87138
rclavicle 1.59028e-014 7.95139e-016
rhumerus 39.0741 13.3475 -74.2414
rradius 124.291
rwrist -3.40076
rhand -31.0794 53.1297
rfingers 7.12502
rthumb -4.3598 23.1946
lclavicle 1.59028e-014 7.95139e-016
lhumerus 52.3824 -10.3463 58.5509
lradius 119.07
lwrist -2.25564
lhand -30.5927 42.5185
lfingers 7.12502
lthumb -3.88981 72.4628
rfemur -36.3049 -0.841988 19.0705
rtibia 32.4034
rfoot -10.9373 -8.36596
rtoes -6.26272
lfemur -31.6738 -1.40023 -16.5138
ltibia 32.8728
lfoot -21.5656 1.46689
ltoes 23.924
483
root 3.6301 27.1527 0.729524 -171.558 85.4876 -189.658
lowerback 12.7189 -1.56514 -7.96563
upperback 9.62559 -2.14199 -1.5372
thorax 3.35929 -1.17871 3.05844
lowerneck -6.65334 1.58604 5.09342
upperneck -9.25729 2.60844 5.43984
head -1.80497 1.23712 0.862286
rclavicle -2.78299e-014 1.03368e-014
rhumerus 39.2847 13.4124 -74.1196
rradius 124.265
rwrist -3.4169
rhand -31.0723 52.9822
rfingers 7.12502
rthumb -4.35291 23.0469
lclavicle -2.78299e-014 1.03368e-014
lhumerus 52.4176 -10.3061 58.5269
lradius 118.832
lwrist -2.60474
lhand -32.8986 40.1085
lfingers 7.12502
lthumb -6.11632 70.0002
rfemur -36.2366 -0.843477 19.0171
rtibia 32.3618
rfoot -10.8715 -8.40864
rtoes -6.36366
lfemur -31.6848 -1.31477 -16.5829
ltibia 32.9134
lfoot -21.5893 1.31431
ltoes 23.735
484
root 3.62741 27.1539 0.725828 -169.511 85.4194 -187.605
lowerback 12.8008 -1.56987 -7.90454
upperback 9.61115 -2.15629 -1.3895
thorax 3.30359 -1.18712 3.18398
lowerneck -6.84992 1.52435 5.10522
upperneck -9.31961 2.51185 5.36027
head -1.79021 1.19193 0.83657
rclavicle -3.97569e-015 1.19271e-014
rhumerus 39.3685 13.4511 -73.9054
rradius 124.204
rwrist -3.45979
rhand -31.0656 52.885
rfingers 7.12502
rthumb -4.34652 22.9496
lclavicle -3.97569e-015 1.19271e-014
lhumerus 52.3639 -10.2797 58.5877
lradius 118.761
lwrist -2.86168
lhand -34.4671 38.8947
lfingers 7.12502
lthumb -7.63046 68.7371
rfemur -36.2019 -0.802271 19.1619
rtibia 32.3021
rfoot -10.8934 -8.45533
rtoes -6.01164
lfemur -31.7555 -1.16159 -16.4557
ltibia 32.9852
lfoot -21.6018 1.07811
ltoes 23.7075
